<svg width="169" height="101" viewBox="0 0 169 101" fill="none" xmlns="http://www.w3.org/2000/svg">
<path d="M85.8248 79.5042L85.8037 66.1831L79.3074 77.4564H78.9265L72.4091 66.2253V79.5042H71.7108V64.7264H72.3032L79.1169 76.5486L85.9095 64.7264H86.502L86.5231 79.5042H85.8248Z" fill="black"/>
<path d="M91.9414 64.7264H92.6609V79.5042H91.9414V64.7264Z" fill="black"/>
<path d="M104.215 79.5886C102.776 79.5886 101.472 79.2649 100.301 78.6175C99.1439 77.9701 98.234 77.0764 97.5709 75.9364C96.9079 74.7964 96.5764 73.5227 96.5764 72.1153C96.5764 70.7079 96.9079 69.4342 97.5709 68.2942C98.234 67.1542 99.1439 66.2605 100.301 65.6131C101.472 64.9657 102.776 64.642 104.215 64.642C105.231 64.642 106.183 64.8109 107.072 65.1486C107.961 65.4723 108.723 65.9579 109.357 66.6053L108.913 67.0698C107.686 65.8875 106.127 65.2964 104.237 65.2964C102.939 65.2964 101.761 65.599 100.703 66.2042C99.6447 66.7953 98.8123 67.6116 98.2057 68.6531C97.5991 69.6946 97.2958 70.8486 97.2958 72.1153C97.2958 73.382 97.5991 74.536 98.2057 75.5775C98.8123 76.619 99.6447 77.4423 100.703 78.0475C101.761 78.6386 102.939 78.9342 104.237 78.9342C106.113 78.9342 107.672 78.3361 108.913 77.1398L109.357 77.6042C108.723 78.2516 107.961 78.7442 107.072 79.082C106.197 79.4198 105.245 79.5886 104.215 79.5886Z" fill="black"/>
<path d="M124.993 64.7264V79.5042H124.273V72.3264H113.883V79.5042H113.164V64.7264H113.883V71.672H124.273V64.7264H124.993Z" fill="black"/>
<path d="M139.497 75.1764H130.63L128.641 79.5042H127.858L134.714 64.7264H135.413L142.269 79.5042H141.486L139.497 75.1764ZM139.222 74.5642L135.074 65.5498L130.906 74.5642H139.222Z" fill="black"/>
<path d="M155.162 78.8498V79.5042H145.153V64.7264H154.865V65.3809H145.872V71.672H153.913V72.3264H145.872V78.8498H155.162Z" fill="black"/>
<path d="M159.287 64.7264H160.007V78.8498H168.683V79.5042H159.287V64.7264Z" fill="black"/>
<path d="M83.5395 85.8375V100.615H82.947L72.4302 87.1464V100.615H71.7108V85.8375H72.3032L82.82 99.3064V85.8375H83.5395Z" fill="black"/>
<path d="M101.366 93.332H102.043V98.7998C101.394 99.419 100.618 99.8905 99.7153 100.214C98.8265 100.538 97.8743 100.7 96.8586 100.7C95.4056 100.7 94.0936 100.376 92.9227 99.7286C91.7518 99.0812 90.8278 98.1875 90.1507 97.0475C89.4877 95.9075 89.1561 94.6338 89.1561 93.2264C89.1561 91.819 89.4877 90.5453 90.1507 89.4053C90.8278 88.2653 91.7518 87.3716 92.9227 86.7242C94.0936 86.0768 95.4056 85.7531 96.8586 85.7531C97.9166 85.7531 98.89 85.9149 99.7787 86.2386C100.667 86.5623 101.429 87.0479 102.064 87.6953L101.641 88.1809C100.414 86.9986 98.8265 86.4075 96.8797 86.4075C95.5537 86.4075 94.3546 86.7101 93.2824 87.3153C92.2244 87.9064 91.3921 88.7227 90.7855 89.7642C90.1789 90.8057 89.8756 91.9598 89.8756 93.2264C89.8756 94.4931 90.1789 95.6472 90.7855 96.6886C91.3921 97.7301 92.2244 98.5535 93.2824 99.1586C94.3546 99.7498 95.5537 100.045 96.8797 100.045C98.7278 100.045 100.223 99.5316 101.366 98.5042V93.332Z" fill="black"/>
<path d="M114.431 100.7C112.597 100.7 111.165 100.165 110.135 99.0953C109.119 98.0257 108.611 96.4564 108.611 94.3875V85.8375H109.331V94.3664C109.331 96.2523 109.768 97.6738 110.643 98.6309C111.517 99.5738 112.78 100.045 114.431 100.045C116.067 100.045 117.323 99.5738 118.197 98.6309C119.086 97.6738 119.53 96.2523 119.53 94.3664V85.8375H120.229V94.3875C120.229 96.4564 119.721 98.0257 118.705 99.0953C117.689 100.165 116.265 100.7 114.431 100.7Z" fill="black"/>
<path d="M131.173 95.5698V100.615H130.453V95.5698L124.465 85.8375H125.248L130.834 94.8731L136.421 85.8375H137.182L131.173 95.5698Z" fill="black"/>
<path d="M151.353 99.9609V100.615H141.344V85.8375H151.057V86.492H142.063V92.7831H150.104V93.4375H142.063V99.9609H151.353Z" fill="black"/>
<path d="M169 85.8375V100.615H168.408L157.891 87.1464V100.615H157.171V85.8375H157.764L168.281 99.3064V85.8375H169Z" fill="black"/>
<path d="M85.8178 43.7154C95.3757 3.45715 106.982 -9.56757 116.54 29.5066C126.098 68.5807 145.896 21.2181 143.165 10.5616" stroke="black" stroke-width="10"/>
<path d="M1.1756 47.6358L56.4281 24.7654V101H1.1756V47.6358Z" fill="black"/>
<path d="M37.1606 88.4038L1.93325 47.2105L56.7134 24.8515L37.1606 88.4038Z" fill="#D11414"/>
</svg>
